<svg width="20" height="20" viewBox="0 0 20 20" fill="none" xmlns="http://www.w3.org/2000/svg">
<g id="Component 1">
<g id="Two Tone / Notification / airline_seat_flat">
<path id="&#240;&#159;&#148;&#185; Secondary Color" fill-rule="evenodd" clip-rule="evenodd" d="M4.16666 9.16667C4.39166 9.16667 4.59999 9.075 4.75833 8.91667C5.08333 8.58333 5.08333 8.06667 4.74999 7.74167C4.59166 7.59167 4.38333 7.5 4.16666 7.5C3.94166 7.5 3.73333 7.59167 3.57499 7.75C3.24999 8.08333 3.24999 8.6 3.58333 8.925C3.74166 9.075 3.94999 9.16667 4.16666 9.16667ZM15 7.5H9.16666V9.16667H16.6667C16.6667 8.25 15.9167 7.5 15 7.5Z" fill="#28A745" fill-opacity="0.3"/>
<path id="&#240;&#159;&#148;&#185; Primary Color" fill-rule="evenodd" clip-rule="evenodd" d="M4.16667 10.8333C4.81667 10.8333 5.45834 10.5833 5.95001 10.0833C6.91667 9.09158 6.90001 7.51659 5.91667 6.54992C5.42501 6.07492 4.79167 5.83325 4.16667 5.83325C3.51667 5.83325 2.87501 6.08325 2.38334 6.58325C1.41667 7.57492 1.43334 9.14992 2.41667 10.1166C2.90834 10.5916 3.54167 10.8333 4.16667 10.8333ZM3.57501 7.74992C3.73334 7.59159 3.94167 7.49992 4.16667 7.49992C4.38334 7.49992 4.59167 7.58325 4.75001 7.73325C5.08334 8.05825 5.08334 8.57492 4.76667 8.90825C4.60001 9.07492 4.39167 9.16659 4.16667 9.16659C3.95001 9.16659 3.74167 9.08325 3.58334 8.93325C3.25001 8.59992 3.25001 8.08325 3.57501 7.74992ZM15 5.83325H7.50001V10.8333H18.3333V9.16658C18.3333 7.32492 16.8417 5.83325 15 5.83325ZM9.16667 9.16659V7.49992H15C15.9167 7.49992 16.6667 8.24992 16.6667 9.16659H9.16667ZM1.66667 13.3333H6.66667V14.9999H13.3333V13.3333H18.3333V11.6666H1.66667V13.3333Z" fill="white"/>
</g>
</g>
</svg>
